<svg id="Capa_1" data-name="Capa 1" xmlns="http://www.w3.org/2000/svg" viewBox="0 0 303.68 247.31"><defs><style>.cls-1,.cls-9{fill:#ede9f7;}.cls-12,.cls-2{fill:#a592d5;}.cls-11,.cls-3{fill:#fff;}.cls-4{fill:#c9bee6;}.cls-10,.cls-13,.cls-5{fill:none;}.cls-10,.cls-11,.cls-12,.cls-5,.cls-9{stroke:#4a25aa;}.cls-11,.cls-12,.cls-5,.cls-9{stroke-linecap:round;stroke-linejoin:round;}.cls-10,.cls-11,.cls-12,.cls-13,.cls-5,.cls-9{stroke-width:0.75px;}.cls-6{fill:#ffd0c6;}.cls-7{fill:#4a25aa;}.cls-8{fill:#ede8f6;}.cls-10,.cls-13{stroke-miterlimit:10;}.cls-13{stroke:#fff;}</style></defs><path class="cls-1" d="M187.57,26.54c-.67-1.6.86-4.36,3.61-7.76s8.22-8.12,13.52-9.39a36.86,36.86,0,0,0,11.58-5.47,9,9,0,0,1,9.82-.15c3.93,2.46,4.45,6.68,4.52,9.65a25,25,0,0,0,1.81,9.47,31.29,31.29,0,0,1,1.78,15.87c-1,6.15-4.33,14.06-4.33,14.06"/><path class="cls-2" d="M224.2,72.75c9.52,1.48,6.68-7.46,6.68-7.46a5.19,5.19,0,0,0,3.43-2.48c1.14-2.1.33-5.27-1-6.91s-3.33.21-3.45-3.53c-.46-14.21-7.39-23.22-14.3-28.06,1.46,4,.73,9.33,1.34,13.57a13.67,13.67,0,0,0,3.1,6.94"/><path class="cls-3" d="M183.64,98c.46,3.16,4.78,7.76,12.63,9.23,1.78.59,3,4.1,3.91,4.18s1.1-3.43,3.71-3.46c14,.32,24.67-7.37,29.51-11.68l-.05-.06a39.7,39.7,0,0,1-5.47-9.79c-5.53-15.17-4.73-25.9-4.28-29.18h0c1.41-.71,2.82-2.21,3.78-5.13a24.46,24.46,0,0,0,.64-2.8A13.31,13.31,0,0,1,216.9,37.88c-.61-4.24.17-9.76-1-13.31a29.32,29.32,0,0,0-4.88-2.87c-8-3.73-18.62-1.61-20.87,1.14-9.63,11.75-3.8,20.43-8.88,33.73-4.62,12.09-1.77,23.48,8.88,26.54-.43,5.26-2.13,10.16-4.72,13.09a22.12,22.12,0,0,1-1.82,1.8"/><path class="cls-1" d="M146.6,242.68c1.41-8.58,2.81-17.11,2.89-22.88.16-11-1.33-19-2.43-35.82,0,0-16.33-62.38,11.55-73.73,3.24-1.54,6.64-2.94,10.22-4.23,5.93-2.11,10.91-4.54,14.49-7.7h0c.47,3.16,4.79,7.76,12.64,9.23,1.78.59,3,4.1,3.91,4.18s1.1-3.43,3.7-3.46c14,.32,24.68-7.37,29.52-11.68h0c4.57,5.86,11.4,10.62,22.8,15.35,11.16,4.13,20,10.51,25.18,22.11l.79,1.65c5,12.23,9.17,27.47,11.58,37.18l-28,52.89c-.07,5,1.69,12.1,2.05,16.91Z"/><path class="cls-4" d="M209.55,78.63s-4.86,16.85-22.3,15a31.26,31.26,0,0,0,2.93-10.51,22,22,0,0,0,6.6.79c6,0,10.87-3.74,12.66-5.39"/><path class="cls-5" d="M190.2,83.35c-.59,5.26-2.15,9.92-4.74,12.85-3.61,4.06-9.31,7-16.32,9.5-3.58,1.29-7,2.69-10.21,4.23"/><path class="cls-6" d="M208.12,49.07a4.38,4.38,0,0,0-3.65,1.57c-.93,1.11-1.16,3,0,3.76s4.77.45,5.62-1.48A2.72,2.72,0,0,0,208.12,49.07Z"/><path class="cls-6" d="M184.45,48.9c-.31,0-.8-.07-1.17-.06-.07.1-1.18,5.45-1.2,5.76,1.43.11,3.68-.28,4.37-1.85A2.72,2.72,0,0,0,184.45,48.9Z"/><path class="cls-6" d="M196.36,70c-.27-.48-3-.54-3.46,0-.69.84.64,1.53,1.67,1.36C195.83,71.2,196.67,70.54,196.36,70Z"/><path class="cls-5" d="M227.84,50.13a12.28,12.28,0,0,1-.46,2c-2.62,8-8.7,5.27-8.7,5.27"/><path class="cls-5" d="M218.51,47.86c.3-.69.65-1.52,1.08-2.53"/><path class="cls-5" d="M220.77,50.92s1.39-2.25,2.74-2.76"/><line class="cls-5" x1="222.5" y1="49" x2="223.81" y2="49.52"/><path class="cls-5" d="M214.59,69.6a19.11,19.11,0,0,1-19.81,14.26C180.41,83,176.07,70.25,181.3,56.57c5.08-13.3-.75-22,8.88-33.73C192.43,20.09,203,18,211.05,21.7S229.3,35,229.86,52.37c.12,3.74,2.13,1.89,3.45,3.53s2.14,4.81,1,6.91a5.19,5.19,0,0,1-3.43,2.48s2.45,8.4-5.44,7.61"/><path class="cls-5" d="M216.3,27.47c.63,1.92,0,6.17.6,10.41A13.31,13.31,0,0,0,228,49.31"/><path class="cls-5" d="M187.57,26.54c-.67-1.6.86-4.36,3.61-7.76s8.22-8.12,13.52-9.39a36.86,36.86,0,0,0,11.58-5.47,9,9,0,0,1,9.82-.15c3.93,2.46,4.45,6.68,4.52,9.65a25,25,0,0,0,1.81,9.47,31.29,31.29,0,0,1,1.78,15.87c-1,6.15-4.33,14.06-4.33,14.06"/><path class="cls-5" d="M200.38,59.33c-2.33.8-5.69,1.07-10.25-.54"/><path class="cls-7" d="M200.18,59.4c-3.9,5.62-8.69,2.51-8,.06a10,10,0,0,0,4.36.64C199.58,60,200.18,59.4,200.18,59.4Z"/><path class="cls-5" d="M200.18,32.66s6-1.34,11.56,4.23"/><path class="cls-5" d="M191.35,32.78a10.15,10.15,0,0,0-6.8,2.49"/><path class="cls-5" d="M202.41,42s3-1.12,4.53.61"/><ellipse class="cls-7" cx="204.83" cy="42.77" rx="1.28" ry="1.2" transform="translate(137.95 241.04) rotate(-83.15)"/><ellipse class="cls-7" cx="187.25" cy="43.22" rx="1.28" ry="1.2" transform="translate(122.02 223.99) rotate(-83.15)"/><path class="cls-5" d="M185,43s1.34-1.5,4-.56"/><path class="cls-5" d="M213.48,41.6c.2-4.81-3.4-6.49-7.92-6.63s-8.26,1.3-8.47,6.1a8.38,8.38,0,0,0,7.83,9A8.57,8.57,0,0,0,213.48,41.6Z"/><path class="cls-5" d="M193.07,43.3a8.29,8.29,0,0,0,.36-3.12c-.33-4.25-3.69-5.29-7.7-4.88s-7.15,2.12-6.82,6.37a7.3,7.3,0,0,0,7.86,6.95"/><path class="cls-5" d="M193.36,39.6c.93-1.47,2.73-1.71,3.92.08"/><line class="cls-5" x1="213.35" y1="39.63" x2="218.19" y2="42.08"/><path class="cls-5" d="M194.9,53.38c-5.25-1.08-5.6-6.42-4.3-7s2.52,1.56,3.53-.79,1.94-9.22,1.65-13.62"/><path class="cls-5" d="M249.14,151c1.69,8,4.56,17.51,4.56,17.51"/><path class="cls-3" d="M211.2,173.48c2.73,5.43,10.64,8.49,16.21,16.06l6.22,7.77c8.3,10.73,18.58,21.46,28.21,32.16,11.39,12.53,24.76,9,32,3.37,8.5-7.32,10.7-15.42,2.21-50.61l-2.25-9.61a161.56,161.56,0,0,0-32,3.56h0c-2.6-2.49-5.05-4.81-7.15-6.73-2.79-2.71-5.62-5.24-8.44-7.49h0c-5.66-4.79-13.76-11.51-18.51-17.13s-7.74-5.82-8.44-3,1.23,6.21,1.23,6.21l.13.24a17.36,17.36,0,0,0-3.35-.85s-19-2-25.59.43a2.51,2.51,0,0,0-.88,1.91,2.64,2.64,0,0,0-.78,2.48c.48,1.26,1.75,1.61,4,2.39s9.34,3.18,9.43,3.31l.18.07c-3.36,1.64-5.25,4.61-4.43,8.21a14.74,14.74,0,0,0,7.47,9.6c3.42,1.94,4.71.79,3.4-2.56,0,0,.39-.77,1.25.18"/><path class="cls-4" d="M251.73,166.87c-6.11,14.2-22.07,25.38-22.07,25.38-2.79-3.59-5.77-6.74-5.77-6.74S240,171.09,245,161.1C245,161.1,250.71,165.71,251.73,166.87Z"/><path class="cls-8" d="M194.36,153.22a2.35,2.35,0,0,1-2.68.63c-1.41-.48-2.19-2.44-1.52-3.31a2.91,2.91,0,0,1,4.38.22A2.33,2.33,0,0,1,194.36,153.22Z"/><path class="cls-8" d="M194.87,148.2a2,2,0,0,1-1.81,1.51c-.71.1-2.8-.63-1.87-1.6a6.61,6.61,0,0,1,3.61-.84A1.55,1.55,0,0,1,194.87,148.2Z"/><path class="cls-8" d="M214.26,148.41c.69-1.12,1.75-1.28,2-.67s-.51.55-.79,1.39-.54,1.43-1.17,1.24S213.7,149.32,214.26,148.41Z"/><path class="cls-8" d="M210.66,152.89c.74-1.44,1.86-1.67,2.17-1.1s-.71.81-1,1.87-.45,1.71-1.17,1.53C210.17,155.06,210.07,154.06,210.66,152.89Z"/><path class="cls-8" d="M207.62,159.74c.2-1.31,1.12-1.86,1.59-1.39s-.2.87-.33,1.74,0,1.38-.48,1.44C207.75,161.6,207.45,160.79,207.62,159.74Z"/><path class="cls-8" d="M206.89,166.3c.19-1.25,1.06-1.79,1.52-1.34s-.25.67-.18,1.52.05,1.46-.58,1.53S206.74,167.31,206.89,166.3Z"/><path class="cls-5" d="M246.13,162c-5.66-4.79-13.76-11.51-18.51-17.13s-7.74-5.82-8.44-3,1.23,6.21,1.23,6.21"/><path class="cls-5" d="M223.89,185.51S240,171.09,245,161.1"/><path class="cls-5" d="M229.66,192.25s16-11.18,22.07-25.38"/><ellipse class="cls-9" cx="241.99" cy="173.6" rx="4.98" ry="5.59" transform="translate(-43.58 258.13) rotate(-52.14)"/><path class="cls-5" d="M232.7,154.27c-5-3.31-12.51-6.5-15.51-6.81"/><path class="cls-5" d="M211.2,173.48c2.73,5.43,10.64,8.49,16.21,16.06"/><path class="cls-5" d="M217.3,147.53c-7.73-1.25-25-1.12-26.08.68a2.92,2.92,0,0,0-.4,1"/><path class="cls-5" d="M203.33,158s-10.68-3.69-12.12-4.3a2.22,2.22,0,0,1-1.18-2.93c.44-.88,1.22-1.5,3.27-1.21S208.06,152,208.06,152"/><path class="cls-5" d="M210,173.3c1.31,3.35,0,4.5-3.4,2.56a14.74,14.74,0,0,1-7.47-9.6c-1-4.55,2.26-8.08,7.36-9.22"/><path class="cls-5" d="M204.3,165.17c-1.65,1-4.65,3-4.65,3"/><path class="cls-5" d="M285.41,199.23c-4.64-4.39-21.37-21.08-30.84-29.78-2.79-2.71-5.62-5.24-8.44-7.49"/><path class="cls-5" d="M296,182.23c8.49,35.19,6.29,43.29-2.21,50.61-7.21,5.66-20.58,9.16-32-3.37-9.63-10.7-19.91-21.43-28.21-32.16"/><path class="cls-5" d="M282.17,135.38c8,19.57,13.85,46.85,13.85,46.85"/><path class="cls-5" d="M227.41,189.54s2.35,2.84,6.22,7.77"/><path class="cls-5" d="M254.57,169.45a268.2,268.2,0,0,1,37.09-4.95"/><path class="cls-5" d="M261.72,176.18a161.56,161.56,0,0,1,32-3.56"/><path class="cls-5" d="M281.38,133.73c-5.19-11.6-14-18-25.18-22.11"/><path class="cls-5" d="M147.37,183.66c1.1,16.78,2.59,24.78,2.43,35.82-.08,5.76-1.79,14.65-3.2,23.2"/><path class="cls-5" d="M223.6,57.24c-.45,3.28-1.25,14,4.28,29.18,4.37,10.88,11.16,18.09,28.32,25.2"/><path class="cls-5" d="M205.43,109.79c3,3.78,8.37,7.15,16.36,3.12,5.34-2,12.34-7.67,16.63-11.43"/><path class="cls-5" d="M195.12,109.88c-7.65,5.3-12.42,1.65-16.72-8.25"/><path class="cls-5" d="M183.64,98c.46,3.16,4.78,7.76,12.63,9.23,1.78.59,3,4.1,3.91,4.18s1.1-3.43,3.71-3.46c14,.32,24.67-7.37,29.51-11.68"/><path class="cls-10" d="M192.9,16.87s29.34-11.13,40.89,24"/><path class="cls-11" d="M124.93,115.71a41.71,41.71,0,0,0,2.53-11.16c.32-3.6.81-7.3,3.09-7.63,0,0,2.95-.66,3.76,6.84"/><path class="cls-12" d="M165.72,115.31l-26.53,9.58L122.07,77a5.29,5.29,0,0,1,3.48-6.85L143,65a4.6,4.6,0,0,1,5.63,2.85Z"/><path class="cls-3" d="M121.79,122.68c-2.8,8-5.37,21.34-6.81,32.51-2.13,16.55-4.06,40.27-4.49,47.28-1,13.71,7.08,23.17,17.42,23.17s19.29-7.95,19.68-23.4c.53-35.41,2-57,3.09-67.17l.17-1c.83-4.84,2-6.39,2.63-7.19,5.85-6.29,13.07-9.19,13.43-11.9a1.9,1.9,0,0,0-1.89-2.28c-1.87,0-9.48,2.92-13.84,4.85l-.15.06c3.8-3.87,10-10.18,10.89-11.13s2.37-3.41.72-4.9-4.14-.27-4.84.17l.38-.21c1.68-1.22,3-2.71,2.22-4.48-1.12-2.17-3.5-1.59-5.18-.67L147.43,101s3.55-3.47,5.28-5.26,2-3.7.88-4.72c-1.57-1.31-4.42.33-5.74,1.18-4.31,2.63-9.87,7.88-15,13.13A52.36,52.36,0,0,0,123,119.51Z"/><path class="cls-1" d="M137.49,104.19c-.51-.73-1.23-.79-1.38-.36s.38.34.6.9.43.94.85.78S137.91,104.78,137.49,104.19Z"/><path class="cls-1" d="M141.07,109.48c-.79-1-1.69-1-1.84-.51s.67.52,1,1.29.62,1.24,1.14,1S141.71,110.29,141.07,109.48Z"/><path class="cls-1" d="M144.56,115.82c-.46-.86-1.23-1-1.44-.58s.35.56.65,1.14.34,1,.69.88S144.94,116.51,144.56,115.82Z"/><path class="cls-1" d="M148,122.54c-.53-.77-1.28-.85-1.44-.41s.39.37.61,1,.43,1,.87.83S148.46,123.16,148,122.54Z"/><path class="cls-1" d="M153.59,91a2.83,2.83,0,0,0-2.61-.5,2,2,0,0,0-1.4,2.55c.46,1.19,2.63,1.47,3.73,0A1.72,1.72,0,0,0,153.59,91Z"/><path class="cls-1" d="M159.37,96.81a2.26,2.26,0,0,0-2.3-.53,2,2,0,0,0-1.41,2.55c.47,1.19,2.64,1.48,3.73,0A1.7,1.7,0,0,0,159.37,96.81Z"/><path class="cls-1" d="M162.3,102.14a2.15,2.15,0,0,0-2.26,0,2.09,2.09,0,0,0-1,2.69c.6,1,2.71.83,3.55-.81A1.58,1.58,0,0,0,162.3,102.14Z"/><path class="cls-1" d="M166,114.06a2.06,2.06,0,0,0-2.1-.58,2,2,0,0,0-1.61,2.25c.3,1.1,2.31,1.46,3.51.15A1.55,1.55,0,0,0,166,114.06Z"/><path class="cls-5" d="M150.29,117.92c4.12-1.9,12.73-5.26,14.73-5.25a1.9,1.9,0,0,1,1.89,2.28c-.36,2.71-7.58,5.61-13.43,11.9-.68.8-1.8,2.35-2.63,7.19"/><path class="cls-5" d="M150.68,135.07c-1.08,10.15-2.56,31.76-3.09,67.17-.39,15.45-9.33,23.4-19.68,23.4s-18.39-9.46-17.42-23.17c.43-7,2.36-30.73,4.49-47.28,1.44-11.17,4-24.55,6.81-32.51"/><path class="cls-5" d="M143.84,111.17c3.06-2.7,14-9.45,14-9.45.7-.44,3.19-1.65,4.84-.17s.2,4-.72,4.9-7.09,7.26-10.89,11.13"/><path class="cls-5" d="M139.08,106.36c3.18-2.56,16.14-10,16.14-10,1.68-.92,4.06-1.5,5.18.67.82,1.77-.54,3.26-2.22,4.48"/><path class="cls-5" d="M123,119.51a52.36,52.36,0,0,1,9.84-14.23c5.18-5.25,10.74-10.5,15-13.13,1.32-.85,4.17-2.49,5.74-1.18,1.15,1,.78,3-.88,4.72s-5.28,5.26-5.28,5.26"/><path class="cls-5" d="M265.85,233.26s1.71,7.54,1.66,9.42"/><path class="cls-1" d="M42.46,165.63a28.11,28.11,0,0,1,7.32,7.44l1.1-2.06.25,1.39c2.14,12.85,1.71,18.81-1.35,26.68s-14.33,25.21-14.9,44.39c5.39,0,87-.79,101-.79,0-6.18-3.85-21.36-3.85-21.36l-3.73-54.91s11.41-7,32.39-6.1c-1-8.61-3.06-31.93-22.58-38.78l-.19.16c-24,12.92-63.42,9.15-70.45-.68l-6.65,2.3s-10.35,2.84-13.07,16.35S42.46,165.63,42.46,165.63Z"/><path class="cls-11" d="M105.79,149.2c-4.44-2.79-7.93-4.93-10.71-7.89s-6.07-5.88-8.3-4.59c0,0-3.31,1.76,1.18,8.94"/><path class="cls-3" d="M160.73,160.31c-20.9-.92-32.39,6.1-32.39,6.1l-14.77-12.53-.15-.16s-.22-.19-.64-.52h0a51.28,51.28,0,0,0-13.85-7.72c-6.69-2.4-13.72-4.64-18.56-5.12-1.5-.18-4.66-.42-5.48,1.37-.57,1.37.57,2.92,2.74,3.74s6.78,2.36,6.78,2.36l-8.68-.73c-1.84-.1-4.15.39-4.22,2.74,0,1.89,1.83,2.61,3.8,3h0c-1.06,0-3.16.2-3.87,1.91-.81,2,1.49,3.53,2.67,3.95s1.69.73,6.61,2.5A29.7,29.7,0,0,0,76,160.9a4.44,4.44,0,0,0-.64.07,1.8,1.8,0,0,0-1.1.74s0,.07-.06.1a1.92,1.92,0,0,0-.24.67v.06a1.33,1.33,0,0,0,.18,1.09c.46,1,2,1.79,4.11,2.69,3.14,1.44,7.44,3.07,11,5.44,1.93,2,6.68,7.27,10.53,11.65l0,0c12.37,14.15,31.24,36.3,33.76,39.16,3.62,4.11,9.38,8.12,18.58,6.12,0,0,10.4-3.19,11.83-13.06C165.83,202.47,165.07,177.94,160.73,160.31Z"/><path class="cls-2" d="M106.13,79.61c.46-1.45,3.66-15.31,3.66-15.31,1.24-5.3,1.7-14.62-4.43-22.63a14.29,14.29,0,0,0-10.8-5.79,20.63,20.63,0,0,0-6.26.78l-1.18-.82c-8.14-5-16-1.49-20.92,3.31C58.76,46.37,59,58.27,57.44,68a70.89,70.89,0,0,1-5.91,19.34,37.31,37.31,0,0,1-6.8,10.34,18,18,0,0,1-10.57,5.58S58.92,120,76.87,117.93a26.38,26.38,0,0,0,22.39-17.78"/><path class="cls-3" d="M77.72,39.69c3.24.27,7.08,3.49,9.78,5,3.23,1.73,5.31,3,7.42,6.24a35.44,35.44,0,0,1,5.88,17.6s3.06,4.13,3.77,5.32c.78,2.72,2,7.25,2,7.25s-14.4,21.43-28.13,19.07c-8.06-.77-12.77-8.4-13.5-13.88-1.19-9,.72-10.86-1.46-22.07C62.13,57.45,62.68,51.45,65,47,66.78,42.89,72.76,39.33,77.72,39.69Z"/><path class="cls-3" d="M78.33,100.15s2.17,7.94,1.29,12.76c-.65,3.06-7,6.1-12.11,8.1h0c7,9.83,46.48,13.6,70.45.68l-.23-.31c-7.77-2.87-13.56-4.16-20.57-12.71-5.6-7.07-12.59-34.87-12.59-34.87"/><path class="cls-4" d="M78.33,100.15c7.83.21,14.21-3.71,19.53-10.26,0,0-3.11,17.62-18.08,18.79A49.89,49.89,0,0,0,78.33,100.15Z"/><path class="cls-6" d="M64.25,69.3c.81-1.07,2-1.33,3.11.16a7.37,7.37,0,0,1,1,5.33c-.3,1.56-2.18,3.29-3.61,2.07-.09-1.12-.06-3-.13-4A36,36,0,0,0,64.25,69.3Z"/><path class="cls-6" d="M92.46,62.67a5.45,5.45,0,0,0-4.87,3.23c-.92,1.92-.27,4.83,1.62,5.87,1.73.94,6.71,0,7.26-3.19C97,65.67,95,62.83,92.46,62.67Z"/><path class="cls-5" d="M84.49,38.14a21.21,21.21,0,0,1,10.07-2.26,14.29,14.29,0,0,1,10.8,5.79c4.56,6,6.68,13.93,4,24.49l-3.23,13.45"/><path class="cls-5" d="M98.67,88.72s-6.68,10.75-18,11.42c-9.39.55-14.89-8-15.67-13.91-1.19-9,.71-10.86-1.47-22.08-1.31-6.72-.76-12.71,1.54-17.15,2.93-5.09,8.48-7.72,12.61-7.34S83.92,43,90.29,46"/><path class="cls-5" d="M80.53,50.12A14.76,14.76,0,0,1,93.73,54"/><path class="cls-5" d="M66,54.21a6.35,6.35,0,0,0-3.26,3"/><path class="cls-3" d="M86.48,76.26s.53-1.53-.37-1.35a18.52,18.52,0,0,1-11.7,5.42,4.23,4.23,0,0,0,.73,1.54C75.52,82.3,83.37,82.73,86.48,76.26Z"/><path class="cls-5" d="M70.32,80.31S79.34,81.7,86,75a.37.37,0,0,1,.64.29,8.81,8.81,0,0,1-6.54,8c-.91.24-4.52.79-5.71-3"/><path class="cls-7" d="M74.78,81.31c1.59.78,8.32-.32,11.7-5,0,0-.91,4.7-4.6,6.36S76.08,83.18,74.78,81.31Z"/><path class="cls-5" d="M72.22,73.62a4.2,4.2,0,0,0-1-1.44A13.29,13.29,0,0,1,70,70.92a2.61,2.61,0,0,1-.61-1.63c.11-2.61,3.16-1,3.9-2.81a2.76,2.76,0,0,0,.1-1.34,55.29,55.29,0,0,0-2-10.13"/><path class="cls-6" d="M84.53,87.77c-.68-.59-5.08.67-5.58,1.79-.72,1.63,1.76,2,3.35,1.23C84.24,89.85,85.28,88.43,84.53,87.77Z"/><path class="cls-11" d="M98.88,67.54c.76-1,.88-1.5,2.32-5.35,2.35-6.25,8.94-2,7.32,4.15s-7.14,4.75-7.14,4.75"/><path class="cls-5" d="M91.12,46.67c7.87,6.45,9.21,17.86,9.21,17.86"/><circle class="cls-9" cx="103.11" cy="70.39" r="3.1"/><path class="cls-5" d="M102.68,66.16s1.49-2.16,2.67-2.58"/><line class="cls-5" x1="104.03" y1="64.57" x2="105.21" y2="64.81"/><path class="cls-5" d="M106.26,59.47a1.65,1.65,0,1,1,.74,2.91"/><path class="cls-5" d="M68.42,63.06a6.55,6.55,0,0,0-4.26,2.26"/><path class="cls-7" d="M67.41,63.35a1.44,1.44,0,0,0-1.83,1.3,1.74,1.74,0,0,0,1.23,1.94,1.6,1.6,0,0,0,1.89-.91A1.74,1.74,0,0,0,67.41,63.35Z"/><path class="cls-5" d="M81.49,60.18a7.22,7.22,0,0,1,6,0"/><path class="cls-7" d="M84.66,59.51A1.45,1.45,0,0,0,83,61a1.76,1.76,0,0,0,1.39,1.83,1.61,1.61,0,0,0,1.81-1.08A1.75,1.75,0,0,0,84.66,59.51Z"/><path class="cls-5" d="M34.16,103.29a18,18,0,0,0,10.57-5.58,37.31,37.31,0,0,0,6.8-10.34A70.89,70.89,0,0,0,57.44,68C59,58.27,58.76,46.37,66.2,39.15c5-4.8,12.78-8.28,20.92-3.31"/><path class="cls-5" d="M59.06,83.89a36.58,36.58,0,0,1-4.88,15.68,70.17,70.17,0,0,1-7.9,10.54"/><path class="cls-5" d="M41.2,106.63A26.81,26.81,0,0,0,52.07,95.12"/><path class="cls-5" d="M46.47,110.21A58.79,58.79,0,0,0,74,118.09"/><path class="cls-11" d="M22.86,124.42A40.57,40.57,0,0,0,26.55,114c.71-3.42,1.6-6.91,3.82-7,0,0,2.89-.3,2.82,7"/><path class="cls-12" d="M62.05,129l-26.82,5.59-9.68-49.1a4.34,4.34,0,0,1,3.78-5.16l17.69-2a4.85,4.85,0,0,1,5.28,3.83Z"/><path class="cls-3" d="M46.07,112.84c4.06-1.84,8-3.51,8-3.51,1.71-.69,4.06-1,4.88,1.23.59,1.79-.88,3.06-2.63,4l-.38.16c.71-.34,3.24-1.21,4.65.39s-.26,3.82-1.25,4.6-7.61,6.15-11.68,9.43h0c4.36-1.36,12.13-3.35,13.94-3.13a1.85,1.85,0,0,1,1.56,2.4c-.66,2.56-7.9,4.51-14.21,9.87-1.31,1.43-1.39,3.59-2.47,8.2l-4,19.12a31.78,31.78,0,0,1,7.32,7.44c-3,5.5-10.58,18.44-18.51,24.38C21,205.1,7.94,200.24,4.62,188c0,0-2.06-9.13,1.55-22.45s11.61-33.34,14.37-37.67a50.45,50.45,0,0,1,11-12.5c5.55-4.45,11.48-8.84,15.89-10.87,1.37-.66,4.28-1.91,5.63-.48,1,1.11.41,3-1.38,4.43S46.07,112.84,46.07,112.84Z"/><path class="cls-13" d="M19.07,130.73c-3.58,7.3-7.56,19.81-10.21,30.34C5,176.67,11.36,187.81,21.26,189s21.87-33.52,24.05-43.12l.28-1c1.34-4.54,2.59-5.89,3.33-6.58,6.31-5.36,13.55-7.31,14.21-9.87a1.85,1.85,0,0,0-1.56-2.4c-1.78-.21-9.4,1.72-13.8,3.08l-.14,0c4.07-3.28,10.75-8.61,11.68-9.43s2.66-3,1.25-4.6-3.94-.73-4.65-.39l.38-.16c1.75-1,3.22-2.24,2.63-4-.82-2.21-3.17-1.92-4.88-1.23l-8,3.51s3.78-2.92,5.64-4.43,2.37-3.32,1.38-4.43c-1.35-1.43-4.26-.18-5.63.48-4.41,2-10.34,6.42-15.89,10.87a50.45,50.45,0,0,0-11,12.5Z"/><path class="cls-1" d="M36.19,114.81c-.41-.75-1.09-.89-1.28-.5s.32.37.47.93.3,1,.72.85S36.52,115.42,36.19,114.81Z"/><path class="cls-1" d="M39,120.29c-.65-1-1.5-1.14-1.7-.7s.58.57.84,1.35.46,1.25,1,1.07S39.53,121.12,39,120.29Z"/><path class="cls-1" d="M41.64,126.74c-.35-.87-1.07-1.11-1.32-.71s.27.57.5,1.16.21,1,.56.92S41.92,127.45,41.64,126.74Z"/><path class="cls-1" d="M44.2,133.57c-.41-.8-1.12-1-1.33-.55s.33.39.47,1,.31,1,.74.9S44.54,134.21,44.2,133.57Z"/><path class="cls-1" d="M53.09,104c-.35-.63-1.65-.89-2.44-.77A2,2,0,0,0,49,105.49c.31,1.19,2.36,1.71,3.57.4A1.66,1.66,0,0,0,53.09,104Z"/><path class="cls-1" d="M58,110.23a2.17,2.17,0,0,0-2.14-.77,2,2,0,0,0-1.64,2.28c.32,1.2,2.36,1.72,3.58.41A1.65,1.65,0,0,0,58,110.23Z"/><path class="cls-1" d="M60.16,115.66a2.07,2.07,0,0,0-2.16-.27,2,2,0,0,0-1.26,2.46c.46,1.05,2.5,1.11,3.49-.36A1.53,1.53,0,0,0,60.16,115.66Z"/><path class="cls-1" d="M62.37,127.49a2,2,0,0,0-1.94-.79,1.93,1.93,0,0,0-1.8,2c.16,1.09,2,1.66,3.34.54A1.48,1.48,0,0,0,62.37,127.49Z"/><path class="cls-5" d="M46.88,129.4c4.16-1.35,12.78-3.59,14.69-3.36a1.85,1.85,0,0,1,1.56,2.4c-.66,2.56-7.9,4.51-14.21,9.87-1.31,1.43-1.39,3.59-2.47,8.2l-7.38,35.33"/><path class="cls-5" d="M41.47,122.21c3.24-2.23,14.44-7.46,14.44-7.46.71-.34,3.24-1.21,4.65.39s-.26,3.82-1.25,4.6-7.61,6.15-11.68,9.43"/><path class="cls-5" d="M37.46,117.07C40.8,115,54,109.33,54,109.33c1.71-.69,4.06-1,4.88,1.23.59,1.79-.88,3.06-2.63,4"/><path class="cls-5" d="M50.88,171s-9.38,18.78-19.61,26.44S7.94,200.24,4.62,188c0,0-2.06-9.13,1.55-22.45s11.61-33.34,14.37-37.67a50.45,50.45,0,0,1,11-12.5c5.55-4.45,11.48-8.84,15.89-10.87,1.37-.66,4.28-1.91,5.63-.48,1,1.11.41,3-1.38,4.43s-5.64,4.43-5.64,4.43"/><path class="cls-1" d="M96.17,146.83c.24-.77.84-1,1.08-.69s-.22.39-.26.93-.11.91-.5.9S96,147.44,96.17,146.83Z"/><path class="cls-1" d="M94.6,152.32c.4-1.06,1.17-1.31,1.42-.94s-.42.62-.52,1.38-.18,1.22-.7,1.16C94.43,153.87,94.28,153.18,94.6,152.32Z"/><path class="cls-1" d="M93.39,158.67c.15-.85.77-1.2,1.07-.89s-.15.57-.25,1.15,0,.91-.34.94S93.26,159.37,93.39,158.67Z"/><path class="cls-1" d="M92.3,165.35c.23-.8.85-1.07,1.1-.74s-.22.42-.25,1-.09,1-.51.95S92.11,166,92.3,165.35Z"/><path class="cls-1" d="M75.41,141.73c.13-.71,1.27-1.38,2-1.52a2,2,0,0,1,2.29,1.63c.09,1.22-1.67,2.38-3.25,1.54C76.06,143.14,75.25,142.62,75.41,141.73Z"/><path class="cls-1" d="M72.32,149.22a2.16,2.16,0,0,1,1.77-1.42,2,2,0,0,1,2.29,1.63c.09,1.23-1.67,2.38-3.25,1.54A1.64,1.64,0,0,1,72.32,149.22Z"/><path class="cls-1" d="M72.41,154.34a2.07,2.07,0,0,1,2-1,2,2,0,0,1,2,1.92c-.1,1.14-2,1.85-3.42.78A1.51,1.51,0,0,1,72.41,154.34Z"/><path class="cls-1" d="M74.72,162.5a2,2,0,0,1,1.84-1,1.94,1.94,0,0,1,2,1.76c0,1.09-1.85,1.87-3.26.9A1.47,1.47,0,0,1,74.72,162.5Z"/><path class="cls-5" d="M90.61,162.88c-4.28-.88-13.38-2.35-15.26-1.91a1.85,1.85,0,0,0-1.28,2.56c.94,2.47,8.35,3.61,15.21,8.23,3.47,3,40.71,46.74,44.33,50.85s9.38,8.12,18.58,6.12c0,0,10.4-3.19,11.83-13.06,1.81-13.2,1-37.73-3.29-55.36"/><path class="cls-5" d="M91.8,155.2c-3.79-1.06-16.07-2.37-16.07-2.37-.79-.09-3.46-.1-4.28,1.88s1.49,3.53,2.67,3.95c.67.27,3.65,1.44,7,2.64"/><path class="cls-5" d="M93.93,149c-3.84-.89-18.2-1.94-18.2-1.94-1.84-.1-4.15.39-4.22,2.74,0,1.89,1.83,2.61,3.8,3"/><path class="cls-5" d="M146.6,183.78c-11.19-11.78-29.16-26.86-33.18-30.06a50.56,50.56,0,0,0-14.49-8.24c-6.69-2.4-13.72-4.64-18.56-5.12-1.5-.18-4.66-.42-5.48,1.37-.57,1.37.57,2.92,2.74,3.74s6.78,2.36,6.78,2.36"/><path class="cls-5" d="M42.46,165.63a28.11,28.11,0,0,1,7.32,7.44"/><path class="cls-5" d="M54.4,146.64S49,159.54,51.13,172.4s1.13,21-2.16,28.72c-2.85,6.69-14.09,26.92-14.09,41.56"/><path class="cls-5" d="M78.33,100.15s2.17,7.94,1.29,12.76c-1.1,5.22-18.76,10.4-18.76,10.4"/><path class="cls-5" d="M67.51,121c7,9.83,46.48,13.6,70.45.68"/><path class="cls-5" d="M104.57,73.8s7,27.8,12.59,34.87c7,8.55,12.8,9.84,20.57,12.71"/><path class="cls-5" d="M135.92,242.68c0-9.46-3.85-21.36-3.85-21.36"/><path class="cls-5" d="M128.34,166.41s11.41-7,32.39-6.1c-1-8.67-3.09-32.27-23-38.93"/><line class="cls-5" x1="3.52" y1="242.68" x2="302.51" y2="242.68"/></svg>